<svg xmlns="http://www.w3.org/2000/svg" width="32" height="32" viewBox="0 0 32 32">
  <metadata><?xpacket begin="﻿" id="W5M0MpCehiHzreSzNTczkc9d"?>
<x:xmpmeta xmlns:x="adobe:ns:meta/" x:xmptk="Adobe XMP Core 5.6-c138 79.159824, 2016/09/14-01:09:01        ">
   <rdf:RDF xmlns:rdf="http://www.w3.org/1999/02/22-rdf-syntax-ns#">
      <rdf:Description rdf:about=""
            xmlns:xmp="http://ns.adobe.com/xap/1.0/">
         <xmp:CreatorTool>Adobe Photoshop CC 2017 (Windows)</xmp:CreatorTool>
      </rdf:Description>
   </rdf:RDF>
</x:xmpmeta>
                                                                                                    
                                                                                                    
                                                                                                    
                                                                                                    
                                                                                                    
                                                                                                    
                                                                                                    
                                                                                                    
                                                                                                    
                                                                                                    
                                                                                                    
                                                                                                    
                                                                                                    
                                                                                                    
                                                                                                    
                                                                                                    
                                                                                                    
                                                                                                    
                                                                                                    
                                                                                                    
                           
<?xpacket end="w"?></metadata>
<defs>
    <style>
      .cls-1 {
        fill: #fff;
        fill-rule: evenodd;
      }
    </style>
  </defs>
  <path id="注销" class="cls-1" d="M891.874,536.262l-5.807,4.667a0.328,0.328,0,0,1-.532-0.262V537.5H872.686a0.332,0.332,0,0,1-.328-0.333v-2.334a0.332,0.332,0,0,1,.328-0.333h12.849v-3.167a0.327,0.327,0,0,1,.532-0.262l5.807,4.667A0.335,0.335,0,0,1,891.874,536.262Zm-0.757-10.487h-2.2a0.321,0.321,0,0,1-.315-0.321v-2.575H862.828v26.242H888.6v-2.575a0.321,0.321,0,0,1,.315-0.321h2.2a0.318,0.318,0,0,1,.315.321v4.175A1.266,1.266,0,0,1,890.172,552H861.256A1.266,1.266,0,0,1,860,550.721V521.279A1.266,1.266,0,0,1,861.256,520h28.92a1.266,1.266,0,0,1,1.256,1.279v4.175A0.318,0.318,0,0,1,891.117,525.775Z" transform="translate(-860 -520)"/>
</svg>
