<svg xmlns="http://www.w3.org/2000/svg" width="16" height="16" viewBox="0 0 16 16">
  <metadata><?xpacket begin="﻿" id="W5M0MpCehiHzreSzNTczkc9d"?>
<x:xmpmeta xmlns:x="adobe:ns:meta/" x:xmptk="Adobe XMP Core 5.6-c138 79.159824, 2016/09/14-01:09:01        ">
   <rdf:RDF xmlns:rdf="http://www.w3.org/1999/02/22-rdf-syntax-ns#">
      <rdf:Description rdf:about=""/>
   </rdf:RDF>
</x:xmpmeta>
                                                                                                    
                                                                                                    
                                                                                                    
                                                                                                    
                                                                                                    
                                                                                                    
                                                                                                    
                                                                                                    
                                                                                                    
                                                                                                    
                                                                                                    
                                                                                                    
                                                                                                    
                                                                                                    
                                                                                                    
                                                                                                    
                                                                                                    
                                                                                                    
                                                                                                    
                                                                                                    
                           
<?xpacket end="w"?></metadata>
<defs>
    <style>
      .cls-1 {
        fill: #fff;
        fill-rule: evenodd;
      }
    </style>
  </defs>
  <path id="关机" class="cls-1" d="M759.982,1192a8.011,8.011,0,0,1-3.57-15.17,0.147,0.147,0,0,1,.215.13v1.19a0.291,0.291,0,0,1-.139.25,6.687,6.687,0,0,0-1.152.93,6.585,6.585,0,0,0-1.93,4.66,6.585,6.585,0,0,0,1.93,4.67,6.565,6.565,0,0,0,9.322,0,6.609,6.609,0,0,0,1.413-7.23,6.468,6.468,0,0,0-1.413-2.1,6.687,6.687,0,0,0-1.152-.93,0.3,0.3,0,0,1-.139-0.25v-1.19a0.147,0.147,0,0,1,.215-0.13A8.012,8.012,0,0,1,759.982,1192Zm0.608-7.11H759.4a0.151,0.151,0,0,1-.148-0.15v-8.59a0.151,0.151,0,0,1,.148-0.15h1.186a0.151,0.151,0,0,1,.148.15v8.59A0.151,0.151,0,0,1,760.59,1184.89Z" transform="translate(-752 -1176)"/>
</svg>
