<svg xmlns="http://www.w3.org/2000/svg" width="16" height="16" viewBox="0 0 16 16">
  <metadata><?xpacket begin="﻿" id="W5M0MpCehiHzreSzNTczkc9d"?>
<x:xmpmeta xmlns:x="adobe:ns:meta/" x:xmptk="Adobe XMP Core 5.6-c138 79.159824, 2016/09/14-01:09:01        ">
   <rdf:RDF xmlns:rdf="http://www.w3.org/1999/02/22-rdf-syntax-ns#">
      <rdf:Description rdf:about=""
            xmlns:xmp="http://ns.adobe.com/xap/1.0/">
         <xmp:CreatorTool>Adobe Photoshop CC 2017 (Windows)</xmp:CreatorTool>
      </rdf:Description>
   </rdf:RDF>
</x:xmpmeta>
                                                                                                    
                                                                                                    
                                                                                                    
                                                                                                    
                                                                                                    
                                                                                                    
                                                                                                    
                                                                                                    
                                                                                                    
                                                                                                    
                                                                                                    
                                                                                                    
                                                                                                    
                                                                                                    
                                                                                                    
                                                                                                    
                                                                                                    
                                                                                                    
                                                                                                    
                                                                                                    
                           
<?xpacket end="w"?></metadata>
<defs>
    <style>
      .cls-1 {
        fill: #fff;
        fill-rule: evenodd;
      }
    </style>
  </defs>
  <path id="锁屏" class="cls-1" d="M14.364,7.04H13.011V2.56A2.553,2.553,0,0,0,10.466,0H5.534A2.553,2.553,0,0,0,2.989,2.56V7.04H1.636A0.637,0.637,0,0,0,1,7.68v7.68a0.638,0.638,0,0,0,.636.64H14.364A0.637,0.637,0,0,0,15,15.36V7.68a0.637,0.637,0,0,0-.636-0.64h0ZM4.421,2.56A1.117,1.117,0,0,1,5.534,1.44h4.932A1.118,1.118,0,0,1,11.58,2.56V7.04H4.421V2.56Zm9.148,12H2.432V8.48H13.568v6.08Zm0,0"/>
</svg>
