<svg xmlns="http://www.w3.org/2000/svg" width="16" height="16" viewBox="0 0 16 16">
  <metadata><?xpacket begin="﻿" id="W5M0MpCehiHzreSzNTczkc9d"?>
<x:xmpmeta xmlns:x="adobe:ns:meta/" x:xmptk="Adobe XMP Core 5.6-c138 79.159824, 2016/09/14-01:09:01        ">
   <rdf:RDF xmlns:rdf="http://www.w3.org/1999/02/22-rdf-syntax-ns#">
      <rdf:Description rdf:about=""/>
   </rdf:RDF>
</x:xmpmeta>
                                                                                                    
                                                                                                    
                                                                                                    
                                                                                                    
                                                                                                    
                                                                                                    
                                                                                                    
                                                                                                    
                                                                                                    
                                                                                                    
                                                                                                    
                                                                                                    
                                                                                                    
                                                                                                    
                                                                                                    
                                                                                                    
                                                                                                    
                                                                                                    
                                                                                                    
                                                                                                    
                           
<?xpacket end="w"?></metadata>
<defs>
    <style>
      .cls-1 {
        fill: #fff;
        fill-rule: evenodd;
      }
    </style>
  </defs>
  <path id="帮助" class="cls-1" d="M760,1087a8,8,0,1,1,8-8A8,8,0,0,1,760,1087Zm0-14.64a6.64,6.64,0,1,0,6.643,6.64A6.64,6.64,0,0,0,760,1072.36Zm1.122,7.36a0.868,0.868,0,0,0-.552.8v0.41a0.14,0.14,0,0,1-.143.14h-0.857a0.14,0.14,0,0,1-.143-0.14v-0.39a2,2,0,0,1,.356-1.15,1.916,1.916,0,0,1,.93-0.73,1.459,1.459,0,0,0,1-1.3,1.743,1.743,0,0,0-3.429,0v0.13a0.148,0.148,0,0,1-.142.15h-0.858a0.149,0.149,0,0,1-.143-0.15v-0.13a2.453,2.453,0,0,1,.865-1.85,3.118,3.118,0,0,1,3.986,0,2.447,2.447,0,0,1,.862,1.85A2.566,2.566,0,0,1,761.121,1079.72ZM760,1082.21a0.715,0.715,0,1,1-.714.72A0.716,0.716,0,0,1,760,1082.21Z" transform="translate(-752 -1071)"/>
</svg>
