<svg xmlns="http://www.w3.org/2000/svg" width="32" height="32" viewBox="0 0 32 32">
  <metadata><?xpacket begin="﻿" id="W5M0MpCehiHzreSzNTczkc9d"?>
<x:xmpmeta xmlns:x="adobe:ns:meta/" x:xmptk="Adobe XMP Core 5.6-c138 79.159824, 2016/09/14-01:09:01        ">
   <rdf:RDF xmlns:rdf="http://www.w3.org/1999/02/22-rdf-syntax-ns#">
      <rdf:Description rdf:about=""
            xmlns:xmp="http://ns.adobe.com/xap/1.0/">
         <xmp:CreatorTool>Adobe Photoshop CC 2017 (Windows)</xmp:CreatorTool>
      </rdf:Description>
   </rdf:RDF>
</x:xmpmeta>
                                                                                                    
                                                                                                    
                                                                                                    
                                                                                                    
                                                                                                    
                                                                                                    
                                                                                                    
                                                                                                    
                                                                                                    
                                                                                                    
                                                                                                    
                                                                                                    
                                                                                                    
                                                                                                    
                                                                                                    
                                                                                                    
                                                                                                    
                                                                                                    
                                                                                                    
                                                                                                    
                           
<?xpacket end="w"?></metadata>
<defs>
    <style>
      .cls-1 {
        fill: #fff;
        fill-rule: evenodd;
      }
    </style>
  </defs>
  <path id="锁屏" class="cls-1" d="M1056.72,533.141h-19.88v-8.363a2.165,2.165,0,0,1,2.23-2.091h9.86a2.165,2.165,0,0,1,2.23,2.091v9.539a0.308,0.308,0,0,0,.32.3h2.22a0.308,0.308,0,0,0,.32-0.3v-9.539a4.942,4.942,0,0,0-5.09-4.779h-9.86a4.936,4.936,0,0,0-5.09,4.779v8.363h-2.71a1.234,1.234,0,0,0-1.27,1.194V550.8a1.234,1.234,0,0,0,1.27,1.2h25.45a1.237,1.237,0,0,0,1.28-1.2V534.335a1.237,1.237,0,0,0-1.28-1.194h0Zm-1.59,16.17h-22.27V535.828h22.27v13.483Zm0,0" transform="translate(-1028 -520)"/>
</svg>
