<svg xmlns="http://www.w3.org/2000/svg" width="16" height="16" viewBox="0 0 16 16">
  <metadata><?xpacket begin="﻿" id="W5M0MpCehiHzreSzNTczkc9d"?>
<x:xmpmeta xmlns:x="adobe:ns:meta/" x:xmptk="Adobe XMP Core 5.6-c138 79.159824, 2016/09/14-01:09:01        ">
   <rdf:RDF xmlns:rdf="http://www.w3.org/1999/02/22-rdf-syntax-ns#">
      <rdf:Description rdf:about=""/>
   </rdf:RDF>
</x:xmpmeta>
                                                                                                    
                                                                                                    
                                                                                                    
                                                                                                    
                                                                                                    
                                                                                                    
                                                                                                    
                                                                                                    
                                                                                                    
                                                                                                    
                                                                                                    
                                                                                                    
                                                                                                    
                                                                                                    
                                                                                                    
                                                                                                    
                                                                                                    
                                                                                                    
                                                                                                    
                                                                                                    
                           
<?xpacket end="w"?></metadata>
<defs>
    <style>
      .cls-1 {
        fill: #4c4c4c;
      }

      .cls-1, .cls-2 {
        fill-rule: evenodd;
      }

      .cls-2 {
        fill: #fff;
      }
    </style>
  </defs>
  <g id="_2格_安全" data-name="2格 安全">
    <g id="组_17" data-name="组 17">
      <path id="形状_1" data-name="形状 1" class="cls-1" d="M279.958,124.1l-0.643.78a0.142,0.142,0,0,1-.2.02,11.124,11.124,0,0,0-14.241-.035,0.141,0.141,0,0,1-.2-0.02l-0.643-.78a0.148,0.148,0,0,1,.02-0.207,12.392,12.392,0,0,1,15.885.036A0.145,0.145,0,0,1,279.958,124.1Zm-7.948.169a9,9,0,0,1,5.845,2.152,0.15,0.15,0,0,1,.018.206l-0.643.78a0.14,0.14,0,0,1-.2.018,7.748,7.748,0,0,0-10.042,0,0.14,0.14,0,0,1-.2-0.018l-0.643-.78a0.15,0.15,0,0,1,.018-0.206A9.012,9.012,0,0,1,272.01,124.273Z" transform="translate(-264 -119)"/>
      <path id="形状_1_拷贝_2" data-name="形状 1 拷贝 2" class="cls-2" d="M275.132,129.956a0.142,0.142,0,0,1-.2.017,4.368,4.368,0,0,0-5.838,0,0.141,0.141,0,0,1-.2-0.016l-0.643-.78a0.15,0.15,0,0,1,.014-0.2,5.636,5.636,0,0,1,7.5,0,0.147,0.147,0,0,1,.016.2Zm-3.14.717a1.164,1.164,0,1,1-1.143,1.163A1.153,1.153,0,0,1,271.992,130.673Z" transform="translate(-264 -119)"/>
      <path id="形状_2_拷贝_2" data-name="形状 2 拷贝 2" class="cls-2" d="M279.249,130.916v-0.875s0-2.041-1.749-2.041-1.75,2.041-1.75,2.041v0.875H275V135h5v-4.084h-0.751Zm-1.5,2.253v0.956h-0.5v-0.956a0.6,0.6,0,0,1-.25-0.5,0.506,0.506,0,1,1,1,0,0.6,0.6,0,0,1-.251.5h0Zm1-2.253h-2.5v-0.871a1.266,1.266,0,1,1,2.5,0v0.875Zm0,0" transform="translate(-264 -119)"/>
    </g>
  </g>
</svg>
