<svg xmlns="http://www.w3.org/2000/svg" width="16" height="16" viewBox="0 0 16 16">
  <metadata><?xpacket begin="﻿" id="W5M0MpCehiHzreSzNTczkc9d"?>
<x:xmpmeta xmlns:x="adobe:ns:meta/" x:xmptk="Adobe XMP Core 5.6-c138 79.159824, 2016/09/14-01:09:01        ">
   <rdf:RDF xmlns:rdf="http://www.w3.org/1999/02/22-rdf-syntax-ns#">
      <rdf:Description rdf:about=""/>
   </rdf:RDF>
</x:xmpmeta>
                                                                                                    
                                                                                                    
                                                                                                    
                                                                                                    
                                                                                                    
                                                                                                    
                                                                                                    
                                                                                                    
                                                                                                    
                                                                                                    
                                                                                                    
                                                                                                    
                                                                                                    
                                                                                                    
                                                                                                    
                                                                                                    
                                                                                                    
                                                                                                    
                                                                                                    
                                                                                                    
                           
<?xpacket end="w"?></metadata>
<defs>
    <style>
      .cls-1 {
        fill: #fff;
        fill-rule: evenodd;
      }
    </style>
  </defs>
  <path id="有线网络icon" class="cls-1" d="M40.114,90.159c0-.005.009-0.011,0.013-0.016a8,8,0,0,0,0-10.286c0-.005-0.009-0.009-0.013-0.014-0.02-.023-0.037-0.045-0.057-0.066l-0.022-.025-0.073-.084,0,0-0.082-.091,0,0c-0.057-.061-0.114-0.121-0.173-0.18v0l-0.086-.086L39.612,79.3c-0.027-.027-0.054-0.052-0.081-0.077A0.294,0.294,0,0,0,39.5,79.2c-0.018-.018-0.036-0.034-0.053-0.05a0.149,0.149,0,0,1-.018-0.018,8,8,0,0,0-10.866,0,0.231,0.231,0,0,0-.018.018l-0.053.052-0.029.027-0.08.077-0.093.093c-0.059.059-.116,0.12-0.174,0.18v0c-0.029.03-.056,0.061-0.083,0.091l0,0c-0.025.027-.05,0.055-0.073,0.084-0.007.009-.014,0.016-0.021,0.025s-0.038.045-.057,0.066l-0.012.014a8,8,0,0,0,0,10.284l0.012,0.016,0.056,0.066L27.96,90.25l0.073,0.084s0,0,0,0c0.027,0.03.054,0.061,0.083,0.089v0c0.057,0.061.114,0.121,0.172,0.18l0,0c0.028,0.028.055,0.057,0.084,0.084L28.382,90.7c0.059,0.059.12,0.116,0.18,0.172a8.005,8.005,0,0,0,10.871,0c0.061-.056.12-0.113,0.179-0.172l0.005-.005c0.029-.029.057-0.055,0.084-0.084l0,0c0.059-.059.116-0.12,0.172-0.18v0c0.026-.03.055-0.059,0.082-0.089,0,0,0,0,0,0,0.025-.027.05-0.055,0.073-0.084,0.007-.009.014-0.016,0.021-0.025s0.041-.045.059-0.066h0Zm0.073-2.546a6.709,6.709,0,0,1-.968,1.611,7.919,7.919,0,0,0-1.456-1,13.336,13.336,0,0,0,.37-2.725H40.7a6.677,6.677,0,0,1-.509,2.113h0ZM40.7,84.5H38.134a13.336,13.336,0,0,0-.37-2.725,7.925,7.925,0,0,0,1.456-1A6.681,6.681,0,0,1,40.7,84.5h0Zm-4.084-5.687a6.687,6.687,0,0,1,1.921,1.236,7.07,7.07,0,0,1-1.061.746,7.651,7.651,0,0,0-1.057-2.061c0.066,0.025.132,0.052,0.2,0.078h0ZM34.994,91.323a2.016,2.016,0,0,1-.5.293V88.3a6.953,6.953,0,0,1,2.066.468,7.745,7.745,0,0,1-.518,1.211,4.326,4.326,0,0,1-1.054,1.341h0Zm1.054-11.305a8.082,8.082,0,0,1,.518,1.211A6.95,6.95,0,0,1,34.5,81.7V78.386a2,2,0,0,1,.5.293,4.3,4.3,0,0,1,1.054,1.339h0ZM34.5,87.3V85.5h2.634a12.37,12.37,0,0,1-.291,2.282l-0.005.021a7.948,7.948,0,0,0-2.338-.5h0Zm0-2.8V82.7a7.951,7.951,0,0,0,2.338-.5l0.005,0.021a12.349,12.349,0,0,1,.291,2.282H34.5Zm-1,1v1.8a7.944,7.944,0,0,0-2.337.5l-0.005-.021a12.359,12.359,0,0,1-.291-2.282H33.5Zm-2.634-1a12.379,12.379,0,0,1,.291-2.282l0.005-.021a7.937,7.937,0,0,0,2.337.5v1.8H30.866ZM33.5,88.3v3.311A2,2,0,0,1,33,91.321a4.3,4.3,0,0,1-1.055-1.341,8.031,8.031,0,0,1-.518-1.211A6.974,6.974,0,0,1,33.5,88.3h0Zm0-6.607a6.95,6.95,0,0,1-2.066-.468,7.734,7.734,0,0,1,.518-1.211,4.274,4.274,0,0,1,1.056-1.341,2.024,2.024,0,0,1,.494-0.293V81.7h0Zm-2.112-2.884c0.066-.027.13-0.054,0.2-0.078a7.653,7.653,0,0,0-1.057,2.061,6.9,6.9,0,0,1-1.061-.746,6.673,6.673,0,0,1,1.921-1.236h0Zm-3.575,3.575a6.713,6.713,0,0,1,.967-1.611,7.942,7.942,0,0,0,1.456,1,13.3,13.3,0,0,0-.37,2.725H27.3a6.681,6.681,0,0,1,.509-2.112h0ZM27.3,85.5h2.563a13.3,13.3,0,0,0,.37,2.725,7.936,7.936,0,0,0-1.456,1A6.681,6.681,0,0,1,27.3,85.5h0Zm4.084,5.688a6.667,6.667,0,0,1-1.921-1.236,7.025,7.025,0,0,1,1.061-.746,7.656,7.656,0,0,0,1.057,2.061c-0.066-.025-0.132-0.052-0.2-0.079h0Zm5.225,0c-0.066.027-.131,0.053-0.2,0.079a7.654,7.654,0,0,0,1.057-2.061,6.948,6.948,0,0,1,1.061.746,6.681,6.681,0,0,1-1.921,1.236h0Zm0,0" transform="translate(-26 -77)"/>
</svg>
