<svg xmlns="http://www.w3.org/2000/svg" width="16" height="16" viewBox="0 0 16 16">
  <metadata><?xpacket begin="﻿" id="W5M0MpCehiHzreSzNTczkc9d"?>
<x:xmpmeta xmlns:x="adobe:ns:meta/" x:xmptk="Adobe XMP Core 5.6-c138 79.159824, 2016/09/14-01:09:01        ">
   <rdf:RDF xmlns:rdf="http://www.w3.org/1999/02/22-rdf-syntax-ns#">
      <rdf:Description rdf:about=""/>
   </rdf:RDF>
</x:xmpmeta>
                                                                                                    
                                                                                                    
                                                                                                    
                                                                                                    
                                                                                                    
                                                                                                    
                                                                                                    
                                                                                                    
                                                                                                    
                                                                                                    
                                                                                                    
                                                                                                    
                                                                                                    
                                                                                                    
                                                                                                    
                                                                                                    
                                                                                                    
                                                                                                    
                                                                                                    
                                                                                                    
                           
<?xpacket end="w"?></metadata>
<defs>
    <style>
      .cls-1 {
        fill: #4c4c4c;
      }

      .cls-1, .cls-2 {
        fill-rule: evenodd;
      }

      .cls-2 {
        fill: #fff;
      }
    </style>
  </defs>
  <g id="_3格_安全" data-name="3格 安全">
    <g id="组_18" data-name="组 18">
      <path id="形状_1" data-name="形状 1" class="cls-1" d="M147.938,123.9a12.392,12.392,0,0,0-15.885-.036,0.147,0.147,0,0,0-.019.207l0.642,0.78a0.141,0.141,0,0,0,.2.02,11.124,11.124,0,0,1,14.241.035,0.141,0.141,0,0,0,.2-0.02l0.643-.78a0.145,0.145,0,0,0-.02-0.206h0Zm0,0" transform="translate(-132 -119)"/>
      <path id="形状_1_拷贝" data-name="形状 1 拷贝" class="cls-2" d="M145.23,127.411a0.14,0.14,0,0,1-.2.018,7.748,7.748,0,0,0-10.042,0,0.14,0.14,0,0,1-.2-0.018l-0.643-.78a0.15,0.15,0,0,1,.018-0.206,9.016,9.016,0,0,1,11.692,0,0.15,0.15,0,0,1,.018.206Zm-5.22.134a5.634,5.634,0,0,1,3.749,1.428,0.147,0.147,0,0,1,.016.2l-0.643.78a0.142,0.142,0,0,1-.2.017,4.367,4.367,0,0,0-5.838,0,0.142,0.142,0,0,1-.2-0.017l-0.643-.78a0.148,0.148,0,0,1,.014-0.2A5.633,5.633,0,0,1,140.01,127.545Zm-0.018,3.128a1.164,1.164,0,1,1-1.143,1.163A1.153,1.153,0,0,1,139.992,130.673Z" transform="translate(-132 -119)"/>
      <path id="形状_2_拷贝" data-name="形状 2 拷贝" class="cls-2" d="M147.249,130.916v-0.875s0-2.041-1.749-2.041-1.75,2.041-1.75,2.041v0.875H143V135h5v-4.084h-0.751Zm-1.5,2.253v0.956h-0.5v-0.956a0.6,0.6,0,0,1-.25-0.5,0.506,0.506,0,1,1,1,0,0.6,0.6,0,0,1-.251.5h0Zm1-2.253h-2.5v-0.871a1.266,1.266,0,1,1,2.5,0v0.875Zm0,0" transform="translate(-132 -119)"/>
    </g>
  </g>
</svg>
