<svg xmlns="http://www.w3.org/2000/svg" width="16" height="16" viewBox="0 0 16 16">
  <metadata><?xpacket begin="﻿" id="W5M0MpCehiHzreSzNTczkc9d"?>
<x:xmpmeta xmlns:x="adobe:ns:meta/" x:xmptk="Adobe XMP Core 5.6-c138 79.159824, 2016/09/14-01:09:01        ">
   <rdf:RDF xmlns:rdf="http://www.w3.org/1999/02/22-rdf-syntax-ns#">
      <rdf:Description rdf:about=""/>
   </rdf:RDF>
</x:xmpmeta>
                                                                                                    
                                                                                                    
                                                                                                    
                                                                                                    
                                                                                                    
                                                                                                    
                                                                                                    
                                                                                                    
                                                                                                    
                                                                                                    
                                                                                                    
                                                                                                    
                                                                                                    
                                                                                                    
                                                                                                    
                                                                                                    
                                                                                                    
                                                                                                    
                                                                                                    
                                                                                                    
                           
<?xpacket end="w"?></metadata>
<defs>
    <style>
      .cls-1 {
        fill: #fff;
        fill-rule: evenodd;
      }
    </style>
  </defs>
  <g id="网络断开">
    <path id="矩形_518_拷贝_2" data-name="矩形 518 拷贝 2" class="cls-1" d="M279,387h-6v2h3v1h-8v-1h3v-2h-6a1,1,0,0,1-1-1v-9a1,1,0,0,1,1-1h14a1,1,0,0,1,1,1v9A1,1,0,0,1,279,387Zm0-10H265v9h14v-9Zm-8.992,1.013L272,380l1.991-1.991,1,1L273,381l1.992,1.991-1,1L272,382l-1.992,1.991-1-1L271,381l-1.991-1.991Z" transform="translate(-264 -375)"/>
  </g>
</svg>
