<svg xmlns="http://www.w3.org/2000/svg" width="16" height="16" viewBox="0 0 16 16">
  <metadata><?xpacket begin="﻿" id="W5M0MpCehiHzreSzNTczkc9d"?>
<x:xmpmeta xmlns:x="adobe:ns:meta/" x:xmptk="Adobe XMP Core 5.6-c138 79.159824, 2016/09/14-01:09:01        ">
   <rdf:RDF xmlns:rdf="http://www.w3.org/1999/02/22-rdf-syntax-ns#">
      <rdf:Description rdf:about=""/>
   </rdf:RDF>
</x:xmpmeta>
                                                                                                    
                                                                                                    
                                                                                                    
                                                                                                    
                                                                                                    
                                                                                                    
                                                                                                    
                                                                                                    
                                                                                                    
                                                                                                    
                                                                                                    
                                                                                                    
                                                                                                    
                                                                                                    
                                                                                                    
                                                                                                    
                                                                                                    
                                                                                                    
                                                                                                    
                                                                                                    
                           
<?xpacket end="w"?></metadata>
<defs>
    <style>
      .cls-1 {
        fill: #4c4c4c;
      }

      .cls-1, .cls-2 {
        fill-rule: evenodd;
      }

      .cls-2 {
        fill: #fff;
      }
    </style>
  </defs>
  <g id="_1格" data-name="1格">
    <g id="组_13" data-name="组 13">
      <path id="形状_1" data-name="形状 1" class="cls-1" d="M411.958,5.1l-0.643.78a0.14,0.14,0,0,1-.2.02,11.125,11.125,0,0,0-14.241-.035,0.141,0.141,0,0,1-.2-0.02l-0.643-.78a0.148,0.148,0,0,1,.02-0.207,12.392,12.392,0,0,1,15.885.036A0.145,0.145,0,0,1,411.958,5.1Zm-7.948.169a9,9,0,0,1,5.845,2.153,0.149,0.149,0,0,1,.018.206l-0.643.78a0.14,0.14,0,0,1-.2.018,7.748,7.748,0,0,0-10.042,0,0.14,0.14,0,0,1-.2-0.018l-0.643-.78a0.149,0.149,0,0,1,.018-0.206A9.01,9.01,0,0,1,404.01,5.273Zm0,3.273a5.631,5.631,0,0,1,3.749,1.427,0.148,0.148,0,0,1,.016.2l-0.643.78a0.142,0.142,0,0,1-.2.016,4.367,4.367,0,0,0-5.838,0,0.142,0.142,0,0,1-.2-0.016l-0.643-.78a0.149,0.149,0,0,1,.014-0.2A5.631,5.631,0,0,1,404.01,8.545Z" transform="translate(-396)"/>
      <path id="形状_1_拷贝_3" data-name="形状 1 拷贝 3" class="cls-2" d="M402.849,12.836a1.143,1.143,0,1,0,1.143-1.164,1.154,1.154,0,0,0-1.143,1.164h0Zm0,0" transform="translate(-396)"/>
    </g>
  </g>
</svg>
