<svg t="1735278925046" class="icon" viewBox="0 0 1084 1024" version="1.1" xmlns="http://www.w3.org/2000/svg" p-id="33135" width="16" height="16"><path d="M35.720132 252.988235h1012.796235A35.960471 35.960471 0 0 0 1084.235896 216.847059c0-19.937882-16.022588-36.141176-35.719529-36.141177H35.720132A35.960471 35.960471 0 0 0 0.000602 216.847059c0 19.937882 16.022588 36.141176 35.71953 36.141176zM35.720132 795.105882h1012.796235a35.960471 35.960471 0 0 0 35.719529-36.141176c0-19.937882-16.022588-36.141176-35.719529-36.141177H35.720132a35.960471 35.960471 0 0 0-35.71953 36.141177c0 19.937882 16.022588 36.141176 35.71953 36.141176z" fill="#ffffff" p-id="33136"></path><path d="M277.082955 433.694118a216.847059 216.847059 0 1 0 0-433.694118 216.847059 216.847059 0 0 0 0 433.694118zM819.200602 975.811765a216.847059 216.847059 0 1 0 0-433.694118 216.847059 216.847059 0 0 0 0 433.694118z" fill="#ffffff" p-id="33137"></path><path d="M819.200602 915.576471a156.611765 156.611765 0 1 1 0-313.22353 156.611765 156.611765 0 0 1 0 313.22353zM277.082955 373.458824a156.611765 156.611765 0 1 1 0-313.22353 156.611765 156.611765 0 0 1 0 313.22353z" fill="#ffffff" p-id="33138"></path></svg>