<svg id="查找" xmlns="http://www.w3.org/2000/svg" width="16" height="16" viewBox="0 0 16 16">
  <metadata><?xpacket begin="﻿" id="W5M0MpCehiHzreSzNTczkc9d"?>
<x:xmpmeta xmlns:x="adobe:ns:meta/" x:xmptk="Adobe XMP Core 5.6-c138 79.159824, 2016/09/14-01:09:01        ">
   <rdf:RDF xmlns:rdf="http://www.w3.org/1999/02/22-rdf-syntax-ns#">
      <rdf:Description rdf:about=""/>
   </rdf:RDF>
</x:xmpmeta>
                                                                                                    
                                                                                                    
                                                                                                    
                                                                                                    
                                                                                                    
                                                                                                    
                                                                                                    
                                                                                                    
                                                                                                    
                                                                                                    
                                                                                                    
                                                                                                    
                                                                                                    
                                                                                                    
                                                                                                    
                                                                                                    
                                                                                                    
                                                                                                    
                                                                                                    
                                                                                                    
                           
<?xpacket end="w"?></metadata>
<defs>
    <style>
      .cls-1 {
        fill: #fff;
        fill-rule: evenodd;
      }
    </style>
  </defs>
  <path id="形状_1_拷贝" data-name="形状 1 拷贝" class="cls-1" d="M15.36,3.441H8.18L5.834,1.047A0.158,0.158,0,0,0,5.724,1H0.64A0.662,0.662,0,0,0,0,1.683V14.317A0.662,0.662,0,0,0,.64,15H15.36A0.662,0.662,0,0,0,16,14.317V4.124a0.662,0.662,0,0,0-.64-0.683h0Zm-0.8,10.022H1.44V2.537H5.21L7.6,4.978H14.56v8.485Zm0,0"/>
  <path id="形状_2_拷贝" data-name="形状 2 拷贝" class="cls-1" d="M11.956,12.183l-1.737-1.712a3.192,3.192,0,0,0,.663-1.949,3.277,3.277,0,1,0-3.276,3.229,3.3,3.3,0,0,0,1.8-.532l1.763,1.738a0.146,0.146,0,0,0,.1.042,0.151,0.151,0,0,0,.1-0.042l0.577-.569a0.144,0.144,0,0,0,0-.206h0Zm-4.35-1.606A2.055,2.055,0,1,1,9.691,8.523a2.069,2.069,0,0,1-2.085,2.055h0Zm0,0"/>
</svg>
