<svg t="1735278560908" class="icon" viewBox="0 0 1024 1024" version="1.1" xmlns="http://www.w3.org/2000/svg" p-id="29297" width="16" height="16"><path d="M568.96 170.24c16.64 0 30.72-13.44 30.72-30.72V108.8c0-16.64-13.44-30.72-30.72-30.72-16.64 0-30.72 13.44-30.72 30.72v30.72c0 17.28 13.44 30.72 30.72 30.72zM139.52 538.24H108.8c-16.64 0-30.72 13.44-30.72 30.72 0 16.64 13.44 30.72 30.72 30.72h30.72c16.64 0 30.72-13.44 30.72-30.72 0-17.28-13.44-30.72-30.72-30.72zM234.88 277.76c12.16 12.16 31.36 12.16 43.52 0 12.16-12.16 12.16-31.36 0-43.52l-21.76-21.76c-12.16-12.16-31.36-12.16-43.52 0-12.16 12.16-12.16 31.36 0 43.52l21.76 21.76zM936.96 200.96c-12.16-12.16-31.36-12.16-43.52 0L806.4 288c-64-54.4-147.2-87.04-237.44-87.04-202.88 0-368 165.12-368 368C200.96 659.2 233.6 742.4 288 806.4l-87.04 87.04c-12.16 12.16-12.16 31.36 0 43.52 12.16 12.16 31.36 12.16 43.52 0l87.04-87.04c64 54.4 147.2 87.04 237.44 87.04 202.88 0 368-165.12 368-368 0-90.24-32.64-173.44-87.04-237.44l87.04-87.04c11.52-12.16 11.52-31.36 0-43.52z m-61.44 368c0 168.96-137.6 306.56-306.56 306.56-73.6 0-140.8-26.24-193.92-69.12L806.4 375.04c42.88 52.48 69.12 120.32 69.12 193.92z" fill="#ffffff" p-id="29298"></path></svg>