<svg t="1735271346070" class="icon" viewBox="0 0 1024 1024" version="1.1" xmlns="http://www.w3.org/2000/svg" p-id="26909" width="16" height="16"><path d="M512 789.3248C358.4 789.3248 234.6752 665.6 234.6752 512S358.4 234.6752 512 234.6752 789.3248 358.4 789.3248 512 665.6 789.3248 512 789.3248zM238.9248 281.6c-12.8 0-21.3248-4.2752-29.8496-12.8L149.3248 209.0752c-17.0496-17.0752-17.0496-42.6752 0-59.7504 17.0752-17.0496 42.6752-17.0496 59.7504 0L268.8 209.0752c17.0752 17.0496 17.0752 42.6496 0 59.7248-8.5248 8.5248-17.0752 12.8-29.8752 12.8zM128 554.6752H42.6752C17.0752 554.6752 0 537.6 0 512s17.0752-42.6752 42.6752-42.6752H128c25.6 0 42.6752 17.0752 42.6752 42.6752S153.6 554.6752 128 554.6752z m51.2 332.8c-12.8 0-21.3248-4.2752-29.8752-12.8-17.0496-17.0752-17.0496-42.6752 0-59.7504L209.0752 755.2c17.0496-17.0752 42.6496-17.0752 59.7248 0 17.0752 17.0752 17.0752 42.6752 0 59.7248l-59.7248 59.7504c-8.5504 8.5248-17.0752 12.8-29.8752 12.8zM512 1024c-25.6 0-42.6752-17.0752-42.6752-42.6752V896c0-25.6 17.0752-42.6752 42.6752-42.6752S554.6752 870.4 554.6752 896v85.3248C554.6752 1006.9248 537.6 1024 512 1024z" fill="#ffffff" p-id="26910"></path></svg>