<svg xmlns="http://www.w3.org/2000/svg" width="16" height="16" viewBox="0 0 16 16">
  <metadata><?xpacket begin="﻿" id="W5M0MpCehiHzreSzNTczkc9d"?>
<x:xmpmeta xmlns:x="adobe:ns:meta/" x:xmptk="Adobe XMP Core 5.6-c138 79.159824, 2016/09/14-01:09:01        ">
   <rdf:RDF xmlns:rdf="http://www.w3.org/1999/02/22-rdf-syntax-ns#">
      <rdf:Description rdf:about=""/>
   </rdf:RDF>
</x:xmpmeta>
                                                                                                    
                                                                                                    
                                                                                                    
                                                                                                    
                                                                                                    
                                                                                                    
                                                                                                    
                                                                                                    
                                                                                                    
                                                                                                    
                                                                                                    
                                                                                                    
                                                                                                    
                                                                                                    
                                                                                                    
                                                                                                    
                                                                                                    
                                                                                                    
                                                                                                    
                                                                                                    
                           
<?xpacket end="w"?></metadata>
<defs>
    <style>
      .cls-1 {
        fill: #fff;
        fill-rule: evenodd;
      }
    </style>
  </defs>
  <g id="音量4">
    <g id="组_13" data-name="组 13">
      <path id="矩形_524_拷贝_3" data-name="矩形 524 拷贝 3" class="cls-1" d="M529.1,253.2v3.5h1.7l3.1,2.4v-8.3l-3,2.4h-1.8Zm1.4-1.1,3.6-2.9a0.661,0.661,0,0,1,.6-0.1,0.55,0.55,0,0,1,.3.5v10.6a0.55,0.55,0,0,1-.3.5,0.471,0.471,0,0,1-.6-0.1l-3.7-2.9h-1.8a0.576,0.576,0,0,1-.6-0.6v-4.6a0.645,0.645,0,0,1,.6-0.6h1.9v0.2ZM537,253h1v4h-1v-4Zm3-2h1v8h-1v-8Zm3-2h1v12h-1V249Z" transform="translate(-528 -247)"/>
    </g>
  </g>
</svg>
