<svg xmlns="http://www.w3.org/2000/svg" width="16" height="16" viewBox="0 0 16 16">
  <metadata><?xpacket begin="﻿" id="W5M0MpCehiHzreSzNTczkc9d"?>
<x:xmpmeta xmlns:x="adobe:ns:meta/" x:xmptk="Adobe XMP Core 5.6-c138 79.159824, 2016/09/14-01:09:01        ">
   <rdf:RDF xmlns:rdf="http://www.w3.org/1999/02/22-rdf-syntax-ns#">
      <rdf:Description rdf:about=""/>
   </rdf:RDF>
</x:xmpmeta>
                                                                                                    
                                                                                                    
                                                                                                    
                                                                                                    
                                                                                                    
                                                                                                    
                                                                                                    
                                                                                                    
                                                                                                    
                                                                                                    
                                                                                                    
                                                                                                    
                                                                                                    
                                                                                                    
                                                                                                    
                                                                                                    
                                                                                                    
                                                                                                    
                                                                                                    
                                                                                                    
                           
<?xpacket end="w"?></metadata>
<defs>
    <style>
      .cls-1 {
        fill: #fff;
        fill-rule: evenodd;
      }
    </style>
  </defs>
  <g id="_4格_安全" data-name="4格 安全">
    <g id="组_19" data-name="组 19">
      <path id="形状_1" data-name="形状 1" class="cls-1" d="M15.958,124.1l-0.643.78a0.141,0.141,0,0,1-.2.02,11.124,11.124,0,0,0-14.241-.035,0.141,0.141,0,0,1-.2-0.02l-0.643-.78a0.147,0.147,0,0,1,.02-0.207,12.392,12.392,0,0,1,15.885.036A0.146,0.146,0,0,1,15.958,124.1Zm-7.948.169a9,9,0,0,1,5.845,2.152,0.149,0.149,0,0,1,.018.206l-0.643.78a0.14,0.14,0,0,1-.2.018,7.748,7.748,0,0,0-10.042,0,0.14,0.14,0,0,1-.2-0.018l-0.643-.78a0.149,0.149,0,0,1,.018-0.206A9.011,9.011,0,0,1,8.01,124.273Zm0,3.272a5.631,5.631,0,0,1,3.749,1.428,0.147,0.147,0,0,1,.016.2l-0.643.78a0.143,0.143,0,0,1-.2.017,4.368,4.368,0,0,0-5.838,0,0.142,0.142,0,0,1-.2-0.016l-0.643-.78a0.149,0.149,0,0,1,.014-0.2A5.635,5.635,0,0,1,8.01,127.545Zm-0.018,3.128a1.164,1.164,0,1,1-1.143,1.163A1.153,1.153,0,0,1,7.992,130.673Z" transform="translate(0 -119)"/>
      <path id="形状_2" data-name="形状 2" class="cls-1" d="M15.249,130.916v-0.875s0-2.041-1.75-2.041-1.75,2.041-1.75,2.041v0.875H11V135h5v-4.084H15.249Zm-1.5,2.253v0.956h-0.5v-0.956a0.6,0.6,0,0,1-.25-0.5,0.506,0.506,0,1,1,1,0,0.6,0.6,0,0,1-.25.5h0Zm1-2.253h-2.5v-0.871a1.331,1.331,0,0,1,1.25-1.462,1.331,1.331,0,0,1,1.25,1.458v0.875Zm0,0" transform="translate(0 -119)"/>
    </g>
  </g>
</svg>
