<svg xmlns="http://www.w3.org/2000/svg" width="16" height="16" viewBox="0 0 16 16">
  <metadata><?xpacket begin="﻿" id="W5M0MpCehiHzreSzNTczkc9d"?>
<x:xmpmeta xmlns:x="adobe:ns:meta/" x:xmptk="Adobe XMP Core 5.6-c138 79.159824, 2016/09/14-01:09:01        ">
   <rdf:RDF xmlns:rdf="http://www.w3.org/1999/02/22-rdf-syntax-ns#">
      <rdf:Description rdf:about=""/>
   </rdf:RDF>
</x:xmpmeta>
                                                                                                    
                                                                                                    
                                                                                                    
                                                                                                    
                                                                                                    
                                                                                                    
                                                                                                    
                                                                                                    
                                                                                                    
                                                                                                    
                                                                                                    
                                                                                                    
                                                                                                    
                                                                                                    
                                                                                                    
                                                                                                    
                                                                                                    
                                                                                                    
                                                                                                    
                                                                                                    
                           
<?xpacket end="w"?></metadata>
<defs>
    <style>
      .cls-1 {
        fill: #fff;
        fill-rule: evenodd;
      }
    </style>
  </defs>
  <g id="音量_无" data-name="音量 无">
    <path id="形状_519_拷贝_3" data-name="形状 519 拷贝 3" class="cls-1" d="M1.1,253.2v3.5H2.8l3.1,2.4v-8.3l-3,2.4H1.1Zm1.4-1.1,3.6-2.9a0.661,0.661,0,0,1,.6-0.1,0.55,0.55,0,0,1,.3.5v10.6a0.55,0.55,0,0,1-.3.5,0.471,0.471,0,0,1-.6-0.1l-3.7-2.9H0.6a0.576,0.576,0,0,1-.6-0.6v-4.6a0.645,0.645,0,0,1,.6-0.6H2.5v0.2Z" transform="translate(0 -247)"/>
    <path id="矩形_519_拷贝" data-name="矩形 519 拷贝" class="cls-1" d="M15.015,257.261l-0.754.754L12,255.754l-2.261,2.261-0.754-.754L11.246,255l-2.261-2.261,0.754-.754L12,254.246l2.261-2.261,0.754,0.754L12.754,255Z" transform="translate(0 -247)"/>
  </g>
</svg>
