<svg xmlns="http://www.w3.org/2000/svg" width="16" height="16" viewBox="0 0 16 16">
  <metadata><?xpacket begin="﻿" id="W5M0MpCehiHzreSzNTczkc9d"?>
<x:xmpmeta xmlns:x="adobe:ns:meta/" x:xmptk="Adobe XMP Core 5.6-c138 79.159824, 2016/09/14-01:09:01        ">
   <rdf:RDF xmlns:rdf="http://www.w3.org/1999/02/22-rdf-syntax-ns#">
      <rdf:Description rdf:about=""/>
   </rdf:RDF>
</x:xmpmeta>
                                                                                                    
                                                                                                    
                                                                                                    
                                                                                                    
                                                                                                    
                                                                                                    
                                                                                                    
                                                                                                    
                                                                                                    
                                                                                                    
                                                                                                    
                                                                                                    
                                                                                                    
                                                                                                    
                                                                                                    
                                                                                                    
                                                                                                    
                                                                                                    
                                                                                                    
                                                                                                    
                           
<?xpacket end="w"?></metadata>
<defs>
    <style>
      .cls-1 {
        fill: #4c4c4c;
      }

      .cls-1, .cls-2 {
        fill-rule: evenodd;
      }

      .cls-2 {
        fill: #fff;
      }
    </style>
  </defs>
  <g id="_3格" data-name="3格">
    <g id="组_15" data-name="组 15">
      <path id="形状_1" data-name="形状 1" class="cls-1" d="M147.938,4.9a12.392,12.392,0,0,0-15.885-.036,0.147,0.147,0,0,0-.019.207l0.642,0.78a0.141,0.141,0,0,0,.2.02,11.125,11.125,0,0,1,14.241.035,0.14,0.14,0,0,0,.2-0.02l0.643-.78a0.145,0.145,0,0,0-.02-0.205h0Zm0,0" transform="translate(-132)"/>
      <path id="形状_1_拷贝" data-name="形状 1 拷贝" class="cls-2" d="M145.23,8.411a0.14,0.14,0,0,1-.2.018,7.747,7.747,0,0,0-10.042,0,0.14,0.14,0,0,1-.2-0.018l-0.643-.78a0.149,0.149,0,0,1,.018-0.206,9.014,9.014,0,0,1,11.692,0,0.149,0.149,0,0,1,.018.206Zm-5.22.135a5.633,5.633,0,0,1,3.749,1.427,0.148,0.148,0,0,1,.016.2l-0.643.78a0.142,0.142,0,0,1-.2.016,4.367,4.367,0,0,0-5.838,0,0.142,0.142,0,0,1-.2-0.016l-0.643-.78a0.149,0.149,0,0,1,.014-0.2A5.633,5.633,0,0,1,140.01,8.545Zm-0.018,3.127a1.164,1.164,0,1,1-1.143,1.163A1.154,1.154,0,0,1,139.992,11.673Z" transform="translate(-132)"/>
    </g>
  </g>
</svg>
