<svg xmlns="http://www.w3.org/2000/svg" width="16" height="16" viewBox="0 0 16 16">
  <metadata><?xpacket begin="﻿" id="W5M0MpCehiHzreSzNTczkc9d"?>
<x:xmpmeta xmlns:x="adobe:ns:meta/" x:xmptk="Adobe XMP Core 5.6-c138 79.159824, 2016/09/14-01:09:01        ">
   <rdf:RDF xmlns:rdf="http://www.w3.org/1999/02/22-rdf-syntax-ns#">
      <rdf:Description rdf:about=""/>
   </rdf:RDF>
</x:xmpmeta>
                                                                                                    
                                                                                                    
                                                                                                    
                                                                                                    
                                                                                                    
                                                                                                    
                                                                                                    
                                                                                                    
                                                                                                    
                                                                                                    
                                                                                                    
                                                                                                    
                                                                                                    
                                                                                                    
                                                                                                    
                                                                                                    
                                                                                                    
                                                                                                    
                                                                                                    
                                                                                                    
                           
<?xpacket end="w"?></metadata>
<defs>
    <style>
      .cls-1 {
        fill: #fff;
        fill-rule: evenodd;
      }
    </style>
  </defs>
  <path id="命令" class="cls-1" d="M15.429,2H0.571A0.558,0.558,0,0,0,0,2.546V13.455A0.558,0.558,0,0,0,.571,14H15.429A0.558,0.558,0,0,0,16,13.455V2.546A0.558,0.558,0,0,0,15.429,2h0ZM14.714,12.773H1.286V3.227H14.714v9.545Zm0,0M8.841,10.841h3.316a0.132,0.132,0,0,0,.127-0.136V9.886a0.132,0.132,0,0,0-.127-0.136H8.841a0.132,0.132,0,0,0-.127.136V10.7a0.132,0.132,0,0,0,.127.136h0ZM2,12l2.166-2L2,8H3.836L6,10,3.836,12H2Z"/>
</svg>
