<svg xmlns="http://www.w3.org/2000/svg" width="16" height="16" viewBox="0 0 16 16">
  <metadata><?xpacket begin="﻿" id="W5M0MpCehiHzreSzNTczkc9d"?>
<x:xmpmeta xmlns:x="adobe:ns:meta/" x:xmptk="Adobe XMP Core 5.6-c138 79.159824, 2016/09/14-01:09:01        ">
   <rdf:RDF xmlns:rdf="http://www.w3.org/1999/02/22-rdf-syntax-ns#">
      <rdf:Description rdf:about=""/>
   </rdf:RDF>
</x:xmpmeta>
                                                                                                    
                                                                                                    
                                                                                                    
                                                                                                    
                                                                                                    
                                                                                                    
                                                                                                    
                                                                                                    
                                                                                                    
                                                                                                    
                                                                                                    
                                                                                                    
                                                                                                    
                                                                                                    
                                                                                                    
                                                                                                    
                                                                                                    
                                                                                                    
                                                                                                    
                                                                                                    
                           
<?xpacket end="w"?></metadata>
<defs>
    <style>
      .cls-1 {
        fill: #fff;
        fill-rule: evenodd;
      }
    </style>
  </defs>
  <path id="收藏" class="cls-1" d="M212.483,537.654l-4.8-.728-2.144-4.543a0.62,0.62,0,0,0-.274-0.287,0.6,0.6,0,0,0-.811.287l-2.144,4.543-4.8.728a0.592,0.592,0,0,0-.346.184,0.652,0.652,0,0,0,.011.894l3.471,3.536-0.82,4.993a0.653,0.653,0,0,0,.06.4,0.59,0.59,0,0,0,.816.264l4.29-2.357,4.291,2.357a0.576,0.576,0,0,0,.383.064,0.629,0.629,0,0,0,.493-0.729l-0.82-4.993,3.471-3.536a0.644,0.644,0,0,0,.175-0.361,0.626,0.626,0,0,0-.51-0.717h0Zm-4.6,4.117,0.682,4.152L205,543.964l-3.568,1.961,0.682-4.152-2.887-2.942,3.99-.606L205,534.448l1.784,3.777,3.99,0.606Zm0,0" transform="translate(-197 -532)"/>
</svg>
