<svg xmlns="http://www.w3.org/2000/svg" width="16" height="16" viewBox="0 0 16 16">
  <defs>
    <style>
      .cls-1 {
        fill: #fff;
        fill-rule: evenodd;
      }
    </style>
  </defs>
  <path id="最近访问" class="cls-1" d="M762.621,938.191l-3.171-2.246a0.144,0.144,0,0,1-.064-0.121V930.7a0.152,0.152,0,0,1,.154-0.149h0.923a0.152,0.152,0,0,1,.153.149v4.6l2.736,1.918a0.144,0.144,0,0,1,.033.209l-0.549.725A0.157,0.157,0,0,1,762.621,938.191Zm5.37-.443A8.239,8.239,0,0,1,760.246,943a8,8,0,1,1,0-16,8.323,8.323,0,0,1,6.5,3.074l-1.147.87a6.817,6.817,0,0,0-2.707-2.013,7,7,0,0,0-5.282,0,6.8,6.8,0,0,0-2.159,1.413,6.529,6.529,0,0,0-1.456,2.093,6.449,6.449,0,0,0,0,5.125,6.6,6.6,0,0,0,1.457,2.093,6.768,6.768,0,0,0,2.158,1.412,7.009,7.009,0,0,0,5.284,0,6.768,6.768,0,0,0,2.158-1.412,6.538,6.538,0,0,0,1.457-2.093c0.04-.093.078-0.186,0.115-0.281a0.155,0.155,0,0,1,.194-0.089l1.087,0.363A0.149,0.149,0,0,1,767.991,937.748Zm-0.3-5.083-3.008-.712a0.148,0.148,0,0,1-.058-0.263l3.024-2.29a0.153,0.153,0,0,1,.248.117l-0.016,3A0.152,0.152,0,0,1,767.688,932.665Z" transform="translate(-752 -927)"/>
</svg>
