<svg xmlns="http://www.w3.org/2000/svg" width="16" height="16" viewBox="0 0 16 16">
  <metadata><?xpacket begin="﻿" id="W5M0MpCehiHzreSzNTczkc9d"?>
<x:xmpmeta xmlns:x="adobe:ns:meta/" x:xmptk="Adobe XMP Core 5.6-c138 79.159824, 2016/09/14-01:09:01        ">
   <rdf:RDF xmlns:rdf="http://www.w3.org/1999/02/22-rdf-syntax-ns#">
      <rdf:Description rdf:about=""/>
   </rdf:RDF>
</x:xmpmeta>
                                                                                                    
                                                                                                    
                                                                                                    
                                                                                                    
                                                                                                    
                                                                                                    
                                                                                                    
                                                                                                    
                                                                                                    
                                                                                                    
                                                                                                    
                                                                                                    
                                                                                                    
                                                                                                    
                                                                                                    
                                                                                                    
                                                                                                    
                                                                                                    
                                                                                                    
                                                                                                    
                           
<?xpacket end="w"?></metadata>
<defs>
    <style>
      .cls-1 {
        fill: #fff;
        fill-rule: evenodd;
      }
    </style>
  </defs>
  <path id="所有程序" class="cls-1" d="M213.843,582.618H202.392a0.156,0.156,0,0,1-.157-0.153v-1.071a0.156,0.156,0,0,1,.157-0.153h11.451a0.156,0.156,0,0,1,.157.153v1.071A0.156,0.156,0,0,1,213.843,582.618Zm0-5.43H202.392a0.156,0.156,0,0,1-.157-0.153v-1.07a0.156,0.156,0,0,1,.157-0.153h11.451a0.156,0.156,0,0,1,.157.153v1.07A0.156,0.156,0,0,1,213.843,577.188Zm0-5.429H202.392a0.156,0.156,0,0,1-.157-0.153v-1.071a0.156,0.156,0,0,1,.157-0.153h11.451a0.156,0.156,0,0,1,.157.153v1.071A0.156,0.156,0,0,1,213.843,571.759ZM199.1,583a1.071,1.071,0,1,1,1.1-1.071A1.085,1.085,0,0,1,199.1,583Zm0-5.429a1.071,1.071,0,1,1,1.1-1.071A1.085,1.085,0,0,1,199.1,577.571Zm0-5.43a1.071,1.071,0,1,1,1.1-1.07A1.084,1.084,0,0,1,199.1,572.141Z" transform="translate(-198 -568.5)"/>
</svg>
