<svg xmlns="http://www.w3.org/2000/svg" width="16" height="16" viewBox="0 0 16 16">
  <metadata><?xpacket begin="﻿" id="W5M0MpCehiHzreSzNTczkc9d"?>
<x:xmpmeta xmlns:x="adobe:ns:meta/" x:xmptk="Adobe XMP Core 5.6-c138 79.159824, 2016/09/14-01:09:01        ">
   <rdf:RDF xmlns:rdf="http://www.w3.org/1999/02/22-rdf-syntax-ns#">
      <rdf:Description rdf:about=""/>
   </rdf:RDF>
</x:xmpmeta>
                                                                                                    
                                                                                                    
                                                                                                    
                                                                                                    
                                                                                                    
                                                                                                    
                                                                                                    
                                                                                                    
                                                                                                    
                                                                                                    
                                                                                                    
                                                                                                    
                                                                                                    
                                                                                                    
                                                                                                    
                                                                                                    
                                                                                                    
                                                                                                    
                                                                                                    
                                                                                                    
                           
<?xpacket end="w"?></metadata>
<defs>
    <style>
      .cls-1 {
        fill: #fff;
        fill-rule: evenodd;
      }
    </style>
  </defs>
  <path id="设置" class="cls-1" d="M766.552,1142.95a6.062,6.062,0,0,1,0,2.07l1.234,1a0.557,0.557,0,0,1,.176.63l-0.017.04a7.752,7.752,0,0,1-1.5,2.47l-0.034.04a0.628,0.628,0,0,1-.663.17l-1.532-.52a6.676,6.676,0,0,1-1.881,1.03l-0.3,1.52a0.577,0.577,0,0,1-.487.46l-0.05.01a8.719,8.719,0,0,1-3,0l-0.051-.01a0.581,0.581,0,0,1-.487-0.46l-0.3-1.52a6.886,6.886,0,0,1-1.867-1.03l-1.545.52a0.626,0.626,0,0,1-.662-0.17l-0.035-.04a7.767,7.767,0,0,1-1.5-2.47l-0.017-.04a0.55,0.55,0,0,1,.175-0.63l1.251-1.02a5.882,5.882,0,0,1-.087-1.02,6.055,6.055,0,0,1,.087-1.02l-1.251-1.01a0.558,0.558,0,0,1-.175-0.63l0.017-.05a7.992,7.992,0,0,1,1.5-2.47l0.035-.03a0.609,0.609,0,0,1,.662-0.17l1.545,0.52a6.627,6.627,0,0,1,1.867-1.03l0.3-1.53a0.606,0.606,0,0,1,.487-0.46l0.051-.01a9.435,9.435,0,0,1,3,0l0.05,0.01a0.6,0.6,0,0,1,.487.46l0.3,1.52a6.936,6.936,0,0,1,1.881,1.03l1.532-.51a0.627,0.627,0,0,1,.663.17l0.034,0.03a7.976,7.976,0,0,1,1.5,2.47l0.017,0.05a0.557,0.557,0,0,1-.176.63Zm-0.858-2.96-1.75.59-0.591-.47a5.3,5.3,0,0,0-1.5-.81l-0.719-.26-0.338-1.74a8.584,8.584,0,0,0-1.6,0l-0.337,1.74-0.716.26a5.254,5.254,0,0,0-1.484.82l-0.592.46-1.763-.59a6.728,6.728,0,0,0-.8,1.31l1.424,1.16-0.123.71a4.744,4.744,0,0,0-.069.82,4.921,4.921,0,0,0,.069.81l0.123,0.72-1.424,1.15a6.605,6.605,0,0,0,.8,1.32l1.763-.6,0.592,0.47a5.225,5.225,0,0,0,1.484.81l0.713,0.26,0.338,1.74a7.169,7.169,0,0,0,1.6,0l0.338-1.73,0.718-.26a5.292,5.292,0,0,0,1.5-.82l0.593-.46,1.75,0.59a6.425,6.425,0,0,0,.8-1.32l-1.408-1.14,0.124-.72a4.762,4.762,0,0,0,0-1.65l-0.123-.71,1.41-1.15A6.738,6.738,0,0,0,765.694,1139.99ZM760,1146.96a3.154,3.154,0,1,1,3.32-3.15A3.238,3.238,0,0,1,760,1146.96Zm1.494-4.57a2.187,2.187,0,0,0-2.988,0,1.945,1.945,0,0,0-.618,1.42,1.923,1.923,0,0,0,.618,1.41,2.187,2.187,0,0,0,2.988,0,1.923,1.923,0,0,0,.618-1.41A1.945,1.945,0,0,0,761.494,1142.39Z" transform="translate(-752 -1136)"/>
</svg>
