<svg xmlns="http://www.w3.org/2000/svg" width="32" height="32" viewBox="0 0 32 32">
  <metadata><?xpacket begin="﻿" id="W5M0MpCehiHzreSzNTczkc9d"?>
<x:xmpmeta xmlns:x="adobe:ns:meta/" x:xmptk="Adobe XMP Core 5.6-c138 79.159824, 2016/09/14-01:09:01        ">
   <rdf:RDF xmlns:rdf="http://www.w3.org/1999/02/22-rdf-syntax-ns#">
      <rdf:Description rdf:about=""
            xmlns:xmp="http://ns.adobe.com/xap/1.0/">
         <xmp:CreatorTool>Adobe Photoshop CC 2017 (Windows)</xmp:CreatorTool>
      </rdf:Description>
   </rdf:RDF>
</x:xmpmeta>
                                                                                                    
                                                                                                    
                                                                                                    
                                                                                                    
                                                                                                    
                                                                                                    
                                                                                                    
                                                                                                    
                                                                                                    
                                                                                                    
                                                                                                    
                                                                                                    
                                                                                                    
                                                                                                    
                                                                                                    
                                                                                                    
                                                                                                    
                                                                                                    
                                                                                                    
                                                                                                    
                           
<?xpacket end="w"?></metadata>
<defs>
    <style>
      .cls-1 {
        fill: #fff;
        fill-rule: evenodd;
      }
    </style>
  </defs>
  <path id="待机" class="cls-1" d="M1227.71,532.418h-9.3a0.289,0.289,0,0,0-.29.287v1.718a0.289,0.289,0,0,0,.29.287h9.3a0.289,0.289,0,0,0,.29-0.287v-1.718a0.289,0.289,0,0,0-.29-0.287h0Zm-4.87,4.87h-4.43a0.289,0.289,0,0,0-.29.287v1.718a0.289,0.289,0,0,0,.29.287h4.43a0.289,0.289,0,0,0,.29-0.287v-1.718a0.289,0.289,0,0,0-.29-0.287h0Zm-12.12-8.075h-1.57a0.4,0.4,0,0,0-.41.4v8.88a0.384,0.384,0,0,0,.17.322l5.41,3.889a0.4,0.4,0,0,0,.56-0.086l0.94-1.257v0a0.4,0.4,0,0,0-.09-0.559l-4.61-3.28v-7.906a0.4,0.4,0,0,0-.4-0.4h0Zm0,0,11.9,12.583h-2.1a0.6,0.6,0,0,0-.51.276,11.592,11.592,0,0,1-9.8,5.336,11.6,11.6,0,0,1-4.5-.9,11.524,11.524,0,0,1-6.16-6.073,11.287,11.287,0,0,1,0-8.88,11.524,11.524,0,0,1,6.16-6.073,11.676,11.676,0,0,1,12.69,2.445,11.785,11.785,0,0,1,1.61,2,0.6,0.6,0,0,0,.51.276h2.1a0.322,0.322,0,0,0,.29-0.476,14,14,0,1,0,0,12.547,0.326,0.326,0,0,0-.29-0.477h0Zm0,0" transform="translate(-1196 -520)"/>
</svg>
