<svg xmlns="http://www.w3.org/2000/svg" width="32" height="32" viewBox="0 0 32 32">
  <metadata><?xpacket begin="﻿" id="W5M0MpCehiHzreSzNTczkc9d"?>
<x:xmpmeta xmlns:x="adobe:ns:meta/" x:xmptk="Adobe XMP Core 5.6-c138 79.159824, 2016/09/14-01:09:01        ">
   <rdf:RDF xmlns:rdf="http://www.w3.org/1999/02/22-rdf-syntax-ns#">
      <rdf:Description rdf:about=""
            xmlns:xmp="http://ns.adobe.com/xap/1.0/">
         <xmp:CreatorTool>Adobe Photoshop CC 2017 (Windows)</xmp:CreatorTool>
      </rdf:Description>
   </rdf:RDF>
</x:xmpmeta>
                                                                                                    
                                                                                                    
                                                                                                    
                                                                                                    
                                                                                                    
                                                                                                    
                                                                                                    
                                                                                                    
                                                                                                    
                                                                                                    
                                                                                                    
                                                                                                    
                                                                                                    
                                                                                                    
                                                                                                    
                                                                                                    
                                                                                                    
                                                                                                    
                                                                                                    
                                                                                                    
                           
<?xpacket end="w"?></metadata>
<defs>
    <style>
      .cls-1 {
        fill: #fff;
        fill-rule: evenodd;
      }
    </style>
  </defs>
  <path id="重启" class="cls-1" d="M801.848,549.493a16.657,16.657,0,0,0,6.152-13,16.007,16.007,0,1,0-32,0,16.646,16.646,0,0,0,5.9,12.793,0.318,0.318,0,0,0,.456-0.053l1.576-2.083a0.338,0.338,0,0,0-.048-0.458,12.6,12.6,0,0,1-.936-0.874,13.172,13.172,0,0,1-2.744-4.195,13.6,13.6,0,0,1,0-10.265,13.172,13.172,0,0,1,2.744-4.195,12.739,12.739,0,0,1,4.068-2.829,12.508,12.508,0,0,1,9.964,0,12.739,12.739,0,0,1,4.068,2.829,13.172,13.172,0,0,1,2.744,4.195,13.631,13.631,0,0,1,0,10.269,13.229,13.229,0,0,1-3.916,5.267l-1.628-2.149a0.317,0.317,0,0,0-.564.124l-1.584,6.69a0.329,0.329,0,0,0,.308.408l6.68,0.033a0.329,0.329,0,0,0,.252-0.532Zm0,0" transform="translate(-776 -520)"/>
</svg>
