<svg xmlns="http://www.w3.org/2000/svg" width="32" height="32" viewBox="0 0 32 32">
  <metadata><?xpacket begin="﻿" id="W5M0MpCehiHzreSzNTczkc9d"?>
<x:xmpmeta xmlns:x="adobe:ns:meta/" x:xmptk="Adobe XMP Core 5.6-c138 79.159824, 2016/09/14-01:09:01        ">
   <rdf:RDF xmlns:rdf="http://www.w3.org/1999/02/22-rdf-syntax-ns#">
      <rdf:Description rdf:about=""
            xmlns:xmp="http://ns.adobe.com/xap/1.0/">
         <xmp:CreatorTool>Adobe Photoshop CC 2017 (Windows)</xmp:CreatorTool>
      </rdf:Description>
   </rdf:RDF>
</x:xmpmeta>
                                                                                                    
                                                                                                    
                                                                                                    
                                                                                                    
                                                                                                    
                                                                                                    
                                                                                                    
                                                                                                    
                                                                                                    
                                                                                                    
                                                                                                    
                                                                                                    
                                                                                                    
                                                                                                    
                                                                                                    
                                                                                                    
                                                                                                    
                                                                                                    
                                                                                                    
                                                                                                    
                           
<?xpacket end="w"?></metadata>
<defs>
    <style>
      .cls-1 {
        fill: #fff;
        fill-rule: evenodd;
      }
    </style>
  </defs>
  <path id="关机" class="cls-1" d="M707.963,552a16.023,16.023,0,0,1-7.139-30.342,0.3,0.3,0,0,1,.429.267V524.3a0.593,0.593,0,0,1-.278.5,13.321,13.321,0,0,0-2.3,1.844,13.188,13.188,0,1,0,18.644,0,13,13,0,0,0-2.3-1.844,0.609,0.609,0,0,1-.279-0.5v-2.378a0.3,0.3,0,0,1,.431-0.266A16.022,16.022,0,0,1,707.963,552Zm1.217-14.223h-2.372a0.3,0.3,0,0,1-.3-0.3V520.294a0.3,0.3,0,0,1,.3-0.3h2.372a0.3,0.3,0,0,1,.3.3V537.48A0.3,0.3,0,0,1,709.18,537.776Z" transform="translate(-692 -520)"/>
</svg>
