<svg xmlns="http://www.w3.org/2000/svg" width="32" height="32" viewBox="0 0 32 32">
  <metadata><?xpacket begin="﻿" id="W5M0MpCehiHzreSzNTczkc9d"?>
<x:xmpmeta xmlns:x="adobe:ns:meta/" x:xmptk="Adobe XMP Core 5.6-c138 79.159824, 2016/09/14-01:09:01        ">
   <rdf:RDF xmlns:rdf="http://www.w3.org/1999/02/22-rdf-syntax-ns#">
      <rdf:Description rdf:about=""
            xmlns:xmp="http://ns.adobe.com/xap/1.0/">
         <xmp:CreatorTool>Adobe Photoshop CC 2017 (Windows)</xmp:CreatorTool>
      </rdf:Description>
   </rdf:RDF>
</x:xmpmeta>
                                                                                                    
                                                                                                    
                                                                                                    
                                                                                                    
                                                                                                    
                                                                                                    
                                                                                                    
                                                                                                    
                                                                                                    
                                                                                                    
                                                                                                    
                                                                                                    
                                                                                                    
                                                                                                    
                                                                                                    
                                                                                                    
                                                                                                    
                                                                                                    
                                                                                                    
                                                                                                    
                           
<?xpacket end="w"?></metadata>
<defs>
    <style>
      .cls-1 {
        fill: #fff;
        fill-rule: evenodd;
      }
    </style>
  </defs>
  <path id="切换用户" class="cls-1" d="M1144,551.671a0.324,0.324,0,0,1-.32.329h-2.24a0.318,0.318,0,0,1-.32-0.308,9.125,9.125,0,0,0-18.24,0,0.318,0.318,0,0,1-.32.308h-2.24a0.324,0.324,0,0,1-.32-0.329,11.993,11.993,0,0,1,6.96-10.571,8.005,8.005,0,1,1,10.07,0,12.108,12.108,0,0,1,3.46,2.416A11.9,11.9,0,0,1,1144,551.671Zm-6.88-16.791a5.084,5.084,0,0,0-1.53-3.656,5.163,5.163,0,0,0-3.64-1.464A5.12,5.12,0,1,0,1137.12,534.88Zm-6.21-10.02a9.907,9.907,0,0,0-2.21.5,0.315,0.315,0,0,1-.37-0.128,5.181,5.181,0,0,0-.82-0.976,5.122,5.122,0,0,0-7.07,7.412,4.969,4.969,0,0,0,1.48,1,0.335,0.335,0,0,1,.18.352,9.522,9.522,0,0,0-.18,1.86,9.24,9.24,0,0,0,.06,1.056,0.316,0.316,0,0,1-.24.348,9.132,9.132,0,0,0-6.86,8.528,0.311,0.311,0,0,1-.32.308h-2.24a0.323,0.323,0,0,1-.32-0.328,11.9,11.9,0,0,1,3.51-8.16,12.108,12.108,0,0,1,3.46-2.416,8,8,0,1,1,12.19-9.82A0.318,0.318,0,0,1,1130.91,524.86Z" transform="translate(-1112 -520)"/>
</svg>
