<svg id="窗口" xmlns="http://www.w3.org/2000/svg" xmlns:xlink="http://www.w3.org/1999/xlink" width="24" height="24" viewBox="0 0 24 24">
  <metadata><?xpacket begin="﻿" id="W5M0MpCehiHzreSzNTczkc9d"?>
<x:xmpmeta xmlns:x="adobe:ns:meta/" x:xmptk="Adobe XMP Core 5.6-c138 79.159824, 2016/09/14-01:09:01        ">
   <rdf:RDF xmlns:rdf="http://www.w3.org/1999/02/22-rdf-syntax-ns#">
      <rdf:Description rdf:about=""/>
   </rdf:RDF>
</x:xmpmeta>
                                                                                                    
                                                                                                    
                                                                                                    
                                                                                                    
                                                                                                    
                                                                                                    
                                                                                                    
                                                                                                    
                                                                                                    
                                                                                                    
                                                                                                    
                                                                                                    
                                                                                                    
                                                                                                    
                                                                                                    
                                                                                                    
                                                                                                    
                                                                                                    
                                                                                                    
                                                                                                    
                           
<?xpacket end="w"?></metadata>
<defs>
    <style>
      .cls-1 {
        fill: url(#linear-gradient);
      }

      .cls-2 {
        fill: #fff;
        fill-rule: evenodd;
      }
    </style>
    <linearGradient id="linear-gradient" x1="12" y1="24" x2="12" gradientUnits="userSpaceOnUse">
      <stop offset="0" stop-color="#1a86ff"/>
      <stop offset="1" stop-color="#4db2ff"/>
    </linearGradient>
  </defs>
  <rect id="矩形_1" data-name="矩形 1" class="cls-1" width="24" height="24" rx="6" ry="6"/>
  <path id="圆角矩形_1_拷贝" data-name="圆角矩形 1 拷贝" class="cls-2" d="M18.746,4H5.254A1.256,1.256,0,0,0,4,5.255v13.49A1.256,1.256,0,0,0,5.254,20H18.746A1.256,1.256,0,0,0,20,18.745V5.255A1.256,1.256,0,0,0,18.746,4h0ZM18.567,18.566H5.433V7.839H18.567V18.566h0Zm-2.183-4.321v-3.2l1.6,1.6Zm-8.767,0-1.6-1.6,1.6-1.6v3.2Zm0,0M15,5a1,1,0,1,1-1,1A1,1,0,0,1,15,5Zm3,0a1,1,0,1,1-1,1A1,1,0,0,1,18,5Z"/>
</svg>
